<?xml version="1.0" standalone="no"?>
<!DOCTYPE svg PUBLIC "-//W3C//DTD SVG 20010904//EN"
 "http://www.w3.org/TR/2001/REC-SVG-20010904/DTD/svg10.dtd">
<svg version="1.0" xmlns="http://www.w3.org/2000/svg"
 width="2340.000000pt" height="894.000000pt" viewBox="0 0 2340.000000 894.000000"
 preserveAspectRatio="xMidYMid meet">

<g transform="translate(0.000000,894.000000) scale(0.100000,-0.100000)"
fill="#000000" stroke="none">
<path d="M10430 6776 c-43 -14 -80 -79 -80 -142 0 -58 23 -164 55 -253 l27
-73 -26 -36 c-14 -21 -66 -89 -117 -152 -179 -225 -207 -284 -159 -335 61 -65
290 -51 427 25 l51 29 11 -31 c37 -106 33 -207 -10 -262 l-21 -27 -12 23 c-20
40 -57 54 -105 39 -56 -16 -131 -88 -131 -125 0 -41 16 -63 55 -76 47 -15 81
-6 134 35 24 19 50 35 57 35 24 0 82 60 105 107 28 57 29 154 4 270 l-17 81
31 46 c18 25 39 62 47 81 46 112 -27 218 -153 219 -54 1 -54 1 -73 45 -26 56
-25 56 10 134 59 131 56 262 -7 319 -31 29 -65 37 -103 24z m84 -66 c45 -54
43 -151 -5 -260 -24 -53 -28 -49 -64 63 -29 92 -34 187 -9 211 23 24 49 19 78
-14z m-50 -482 c12 -28 11 -36 -11 -84 -26 -57 -24 -98 6 -114 26 -13 43 3 36
32 -13 50 14 37 31 -14 9 -29 25 -70 36 -92 19 -38 19 -38 -2 -61 -58 -62
-209 -111 -318 -102 -96 7 -110 29 -69 104 20 39 266 363 274 363 2 0 10 -14
17 -32z m201 -73 c14 -13 25 -34 25 -47 -1 -33 -39 -113 -49 -102 -10 10 -61
149 -61 165 0 20 61 9 85 -16z"/>
<path d="M7630 6770 c-36 -4 -103 -8 -149 -9 -62 -1 -109 -9 -180 -30 -53 -17
-134 -39 -181 -51 -47 -11 -116 -34 -155 -50 -38 -16 -119 -50 -180 -75 -168
-71 -370 -206 -579 -389 -67 -59 -270 -318 -368 -471 -58 -90 -148 -269 -148
-294 0 -11 -4 -22 -9 -25 -13 -9 -67 -163 -76 -216 -3 -25 -19 -79 -35 -120
-35 -95 -57 -224 -70 -417 -12 -178 -9 -240 31 -553 27 -202 37 -255 76 -375
25 -77 55 -156 68 -175 13 -19 35 -78 49 -131 64 -242 187 -443 384 -630 266
-252 618 -430 1032 -522 200 -45 430 -70 430 -48 0 10 94 14 124 5 15 -5 16
-8 5 -16 -10 -7 -8 -8 6 -2 11 4 65 11 120 14 119 9 323 43 420 71 248 72 341
106 480 176 193 97 312 180 413 288 86 92 210 285 196 306 -4 7 1 18 10 25 18
13 56 176 56 239 0 16 -20 70 -45 120 -39 79 -51 95 -98 126 -76 51 -192 88
-236 77 l-34 -9 56 -57 c56 -56 107 -155 107 -206 0 -54 -45 -256 -68 -301
-56 -113 -125 -207 -195 -266 -39 -32 -76 -59 -82 -59 -38 0 -178 45 -251 82
-258 127 -457 386 -520 674 -20 94 -23 296 -5 368 6 27 10 51 8 53 -3 2 -13
-29 -23 -69 -15 -56 -19 -107 -18 -223 0 -134 3 -160 28 -239 29 -95 87 -220
139 -295 49 -74 196 -214 276 -266 77 -50 198 -105 272 -125 40 -11 40 -12 23
-31 -36 -39 -175 -110 -343 -174 -160 -61 -174 -65 -191 -50 -10 9 -53 24 -96
35 -304 72 -594 255 -736 464 -194 283 -179 597 42 916 29 41 114 135 189 209
75 73 125 128 111 121 -78 -40 -251 -203 -335 -315 -59 -79 -139 -241 -165
-335 -68 -248 -15 -512 145 -720 59 -77 177 -187 260 -242 68 -45 238 -133
306 -157 l34 -13 -50 -15 c-42 -13 -69 -13 -180 -3 -158 13 -268 37 -423 88
-136 46 -330 131 -386 170 -73 50 -150 209 -186 382 -37 177 -19 406 47 600
84 246 260 492 474 660 87 69 116 99 62 65 -139 -88 -335 -279 -425 -416 -112
-168 -183 -341 -214 -519 -33 -194 -3 -442 75 -614 17 -38 29 -71 27 -73 -11
-12 -321 215 -401 293 -157 154 -350 622 -332 808 14 138 81 334 172 496 194
347 494 595 810 671 94 22 255 25 330 6 l50 -13 -3 -75 c-4 -93 11 -151 85
-319 l55 -125 90 -74 c147 -123 290 -191 402 -191 19 0 45 -4 58 -9 34 -12
254 14 372 46 126 33 341 130 476 214 98 61 206 161 248 229 9 14 44 54 78 90
35 36 71 83 80 105 9 22 29 58 44 80 15 22 31 51 35 65 4 14 25 59 46 102 28
56 40 94 45 145 4 37 18 102 33 143 35 100 36 245 2 365 -50 180 -177 394
-326 553 -222 236 -475 383 -690 402 -49 5 -123 15 -163 24 -120 27 -588 43
-742 26z m519 -256 c232 -11 309 -24 449 -74 238 -84 269 -97 360 -159 64 -43
119 -92 192 -173 139 -153 186 -249 224 -461 26 -141 27 -150 12 -201 -9 -30
-16 -72 -16 -93 0 -94 -146 -403 -256 -544 -56 -71 -263 -251 -374 -325 -101
-68 -318 -148 -460 -169 -164 -25 -251 -24 -350 4 -81 22 -88 27 -147 90 -61
64 -63 69 -84 161 -25 110 -22 137 38 324 34 105 40 115 101 177 40 42 75 69
93 73 16 3 42 14 57 24 15 10 55 37 89 60 38 26 68 39 78 36 9 -4 25 2 38 13
18 16 39 20 117 22 93 2 96 1 153 -33 89 -54 84 -25 -17 96 -114 137 -222 229
-441 375 -60 40 -176 86 -288 114 -106 26 -336 36 -472 20 -297 -35 -640 -175
-878 -358 -42 -33 -58 -41 -53 -27 4 10 55 91 114 179 81 122 121 173 171 214
35 30 77 74 94 97 79 113 422 332 662 425 63 24 236 69 267 69 13 0 47 9 77
21 33 12 76 20 110 19 31 0 94 4 141 9 47 4 94 6 105 4 11 -3 53 -6 94 -9z
m-476 -705 c55 -11 135 -33 176 -50 82 -31 201 -102 201 -119 0 -5 -21 -10
-47 -10 -26 0 -53 -6 -62 -14 -9 -8 -53 -30 -98 -49 -100 -43 -233 -151 -328
-269 -53 -65 -65 -87 -65 -116 0 -48 -30 -152 -44 -152 -6 1 -38 7 -71 15
-156 38 -393 2 -565 -85 -80 -40 -213 -131 -299 -204 -155 -131 -317 -343
-405 -529 -23 -51 -48 -103 -54 -117 -20 -41 -6 301 18 455 28 178 79 387 147
595 64 197 74 212 203 310 310 235 663 357 1038 359 118 1 177 -4 255 -20z
m490 -3409 c-4 -4 -26 -10 -48 -14 l-40 -6 35 19 c32 17 72 18 53 1z"/>
<path d="M12632 6419 c-53 -23 -102 -57 -102 -70 0 -24 166 9 187 37 15 21 0
54 -25 53 -9 0 -37 -9 -60 -20z"/>
<path d="M11817 6347 c-43 -23 -76 -32 -121 -35 -73 -5 -169 13 -186 34 -17
19 -48 18 -54 -3 -3 -10 -28 -119 -55 -243 -76 -341 -69 -325 -146 -334 -33
-4 -64 -2 -75 4 -15 8 -31 6 -65 -10 -138 -63 -60 -152 87 -99 134 47 161 69
200 159 20 46 108 400 108 434 0 13 5 16 18 11 36 -14 127 -35 152 -35 14 0
50 6 79 14 l53 14 -7 -37 c-4 -20 -32 -121 -62 -226 -31 -104 -63 -220 -71
-257 -18 -78 -31 -87 -117 -83 -66 4 -102 -10 -134 -51 -26 -33 -26 -39 -1
-64 31 -31 66 -24 174 36 151 85 151 84 152 135 1 26 32 133 76 264 94 272
117 359 102 383 -17 26 -43 23 -107 -11z"/>
<path d="M12475 6304 c-10 -11 -13 -27 -10 -52 3 -20 17 -121 30 -224 14 -103
32 -219 40 -258 8 -40 13 -75 10 -80 -3 -4 -25 -8 -50 -8 -52 1 -105 -33 -124
-80 -10 -24 -10 -36 3 -67 16 -37 17 -38 61 -33 64 8 108 45 146 125 l32 67
-12 107 c-12 110 -51 364 -71 456 -12 55 -30 71 -55 47z"/>
<path d="M16010 6288 c0 -12 -221 -86 -320 -107 -25 -5 -63 -16 -85 -25 -22
-8 -50 -15 -62 -16 -14 0 -23 -6 -23 -15 0 -21 -21 -28 -51 -16 -18 6 -30 5
-44 -5 -10 -8 -35 -14 -55 -14 -30 0 -39 -5 -55 -32 -31 -52 -21 -99 45 -212
42 -74 64 -102 84 -109 15 -5 29 -7 32 -4 2 2 -5 43 -16 91 -11 48 -20 91 -20
95 0 11 281 181 299 181 7 0 30 10 50 23 47 29 204 96 213 91 4 -2 0 -28 -9
-56 -8 -28 -42 -164 -74 -302 -33 -138 -79 -314 -104 -391 -65 -208 -88 -304
-75 -320 7 -9 4 -20 -11 -39 -12 -15 -18 -34 -15 -43 4 -8 2 -21 -4 -28 -14
-17 -90 -319 -90 -358 0 -18 -7 -42 -15 -53 -8 -10 -15 -34 -15 -52 0 -18 -8
-44 -17 -58 -13 -21 -14 -27 -3 -34 10 -6 5 -19 -22 -57 -26 -37 -33 -54 -26
-66 6 -11 4 -26 -7 -46 -12 -24 -13 -35 -4 -55 10 -21 8 -32 -15 -70 -14 -24
-32 -75 -40 -111 -8 -37 -19 -72 -25 -78 -6 -6 -11 -27 -11 -46 -1 -20 -7 -47
-15 -61 -8 -14 -14 -52 -15 -87 0 -45 -4 -63 -13 -63 -20 0 -45 -61 -40 -97 4
-23 -1 -40 -16 -59 -23 -30 -27 -54 -10 -71 8 -8 6 -19 -7 -39 -37 -56 -104
-218 -104 -252 0 -60 -42 -195 -67 -215 -12 -10 -28 -37 -34 -60 -6 -23 -22
-78 -34 -122 -13 -44 -26 -101 -30 -127 -3 -26 -10 -50 -15 -53 -18 -11 3 -35
35 -41 19 -3 36 -12 39 -19 3 -8 26 -23 51 -34 43 -19 49 -19 76 -6 38 20 46
38 189 396 67 167 152 360 188 429 144 272 321 535 491 730 104 119 323 340
337 340 7 0 18 -8 23 -19 13 -24 -29 -182 -58 -222 -25 -33 -48 -164 -33 -182
13 -15 -11 -77 -30 -77 -7 0 -19 -4 -27 -9 -12 -8 -12 -12 -2 -25 11 -13 10
-31 -9 -105 -12 -50 -28 -92 -36 -95 -7 -3 -11 -12 -8 -21 7 -17 -12 -138 -28
-178 -9 -22 -8 -31 6 -46 10 -11 13 -21 8 -22 -5 -2 -11 -52 -14 -111 -4 -87
-2 -108 10 -113 11 -4 12 -8 2 -20 -10 -11 -6 -25 19 -68 17 -30 31 -68 31
-85 0 -23 5 -31 25 -36 13 -3 29 -16 36 -27 15 -29 110 -69 164 -69 63 0 153
36 198 79 21 20 65 68 97 107 50 60 57 74 45 84 -11 9 -17 6 -30 -14 -25 -38
-131 -100 -205 -120 l-64 -18 -18 22 c-10 12 -18 30 -18 39 0 9 -4 21 -8 27
-5 5 -7 69 -4 142 4 128 5 132 28 138 23 6 23 6 6 41 -17 35 -16 36 6 51 22
15 30 42 12 42 -19 0 -11 76 10 95 11 10 17 21 14 26 -2 4 5 13 16 19 20 11
21 19 3 68 -3 7 3 12 17 12 19 0 22 4 17 27 -3 15 -1 36 5 46 7 13 6 23 -1 30
-8 8 -1 21 25 48 37 38 37 38 20 64 -16 24 -16 28 -2 38 21 16 60 117 45 117
-7 0 -5 9 4 24 12 17 13 26 4 35 -8 8 -5 18 11 40 16 22 24 55 34 139 l12 109
-40 66 c-32 55 -47 70 -86 87 -50 21 -148 27 -190 11 -29 -11 -276 -244 -302
-286 -11 -16 -47 -60 -79 -98 -37 -42 -57 -73 -53 -82 4 -10 -1 -15 -14 -15
-32 0 -95 -65 -144 -148 -25 -42 -54 -82 -64 -88 -10 -7 -40 -44 -67 -83 -27
-39 -53 -71 -57 -71 -5 0 -6 -9 -3 -20 3 -11 2 -20 -4 -20 -5 0 -16 -3 -24 -6
-14 -5 -14 1 -1 58 8 34 21 66 29 71 8 4 15 18 15 30 0 13 6 31 14 42 7 11 17
40 20 65 8 48 31 105 46 115 5 3 7 12 4 19 -3 8 0 17 6 21 8 5 6 11 -6 20 -17
12 -17 13 3 25 11 7 18 20 16 29 -2 9 6 30 19 46 12 16 21 37 20 47 -4 24 36
156 49 160 6 2 12 19 14 38 1 19 10 55 19 80 15 40 15 46 2 55 -13 8 -12 12 9
30 18 15 34 54 66 170 23 83 45 157 50 165 5 8 13 25 18 37 6 11 15 24 21 28
8 5 8 11 -1 21 -7 9 -8 14 -1 14 6 0 13 26 17 58 3 31 13 69 21 84 17 31 36
110 36 151 1 15 4 27 9 27 9 0 34 70 30 88 -1 8 3 20 10 28 8 10 8 14 0 14
-19 0 -12 49 8 60 16 8 18 15 11 39 -6 21 -4 33 5 41 7 6 15 29 19 51 4 23 14
55 23 73 10 17 31 96 49 176 29 134 30 148 17 182 -14 34 -21 39 -111 72 -75
27 -188 56 -219 56 -2 0 -3 -6 -3 -12z"/>
<path d="M13065 5549 c-33 -17 -133 -71 -222 -121 -272 -150 -429 -209 -607
-227 -187 -19 -295 10 -507 135 -178 105 -249 129 -379 129 -249 -1 -626 -157
-817 -338 -57 -54 -183 -232 -183 -259 0 -26 23 -36 68 -29 39 5 47 12 80 61
42 61 128 135 217 185 76 43 359 158 445 181 86 23 230 23 290 0 24 -9 102
-51 173 -92 70 -42 163 -88 205 -104 246 -90 529 -54 842 106 163 83 285 168
393 274 129 127 130 164 2 99z"/>
<path d="M14155 4792 c-235 -65 -462 -232 -603 -443 -86 -128 -155 -266 -148
-295 3 -11 -1 -29 -9 -41 -7 -11 -21 -62 -30 -114 -9 -51 -20 -98 -25 -104
-10 -12 -16 -292 -7 -302 4 -3 7 -17 7 -30 0 -13 5 -32 11 -42 9 -13 9 -27 2
-47 -17 -48 51 -271 118 -386 121 -212 263 -346 454 -432 l90 -40 145 -1 c149
0 250 15 271 42 6 7 21 13 33 13 25 0 86 35 86 50 0 5 10 10 23 10 13 0 45 22
80 56 69 65 124 173 133 262 l6 57 -41 -66 c-72 -118 -202 -223 -351 -283 -69
-28 -104 -36 -187 -42 -96 -6 -107 -5 -177 20 -118 43 -279 193 -318 296 -66
174 -82 230 -105 345 -27 142 -27 246 2 301 8 16 15 39 15 51 0 13 17 85 39
160 50 176 132 356 206 447 31 39 55 78 55 91 0 15 8 26 20 30 11 4 28 17 36
31 9 13 24 24 33 24 9 0 34 23 56 50 22 28 67 71 99 97 61 47 181 103 222 103
13 0 24 4 24 9 0 5 27 12 60 16 54 6 65 4 107 -21 27 -15 64 -41 84 -59 l36
-32 -34 -99 c-30 -87 -41 -106 -91 -157 -67 -69 -121 -99 -219 -121 -82 -18
-89 -17 -186 43 -37 22 -67 39 -67 36 0 -24 69 -118 107 -146 70 -51 72 -52
153 -65 66 -11 85 -10 165 7 130 29 253 102 311 184 23 33 49 85 58 116 14 53
14 61 -4 125 -11 37 -27 72 -35 77 -8 4 -15 14 -15 21 0 35 -129 122 -240 162
-41 15 -85 33 -98 42 -16 10 -57 16 -140 18 -103 3 -129 0 -217 -24z"/>
<path d="M10301 4458 c-90 -45 -128 -69 -140 -90 -9 -15 -23 -28 -31 -29 -8 0
-53 -45 -100 -100 -99 -115 -243 -367 -233 -406 4 -16 1 -23 -10 -23 -21 0
-65 -182 -73 -301 -4 -71 -1 -124 14 -216 18 -106 26 -133 66 -206 39 -71 57
-93 123 -145 52 -41 104 -71 160 -93 l82 -32 128 11 c168 14 235 41 395 161
219 164 340 337 384 548 15 75 15 88 1 170 -16 88 -17 88 -74 141 -75 69 -121
95 -214 121 -86 24 -125 26 -218 10 -80 -14 -86 -17 -183 -90 -114 -87 -182
-210 -192 -347 -4 -61 -1 -80 19 -125 13 -28 43 -71 68 -95 40 -39 51 -44 104
-49 72 -7 122 8 169 49 37 32 47 66 17 53 -24 -10 -80 -22 -130 -28 -33 -4
-50 0 -75 17 -31 20 -33 25 -36 90 -4 90 17 149 84 243 30 41 54 80 54 87 0
20 101 71 167 85 95 20 141 9 213 -50 l60 -51 0 -70 c0 -38 5 -78 11 -89 9
-17 -1 -43 -54 -153 -155 -319 -327 -491 -531 -532 -80 -16 -89 -16 -152 0
-116 29 -185 103 -210 225 -31 149 -8 323 70 519 58 146 100 214 206 335 76
87 96 104 191 156 134 76 190 85 308 51 78 -23 111 -22 111 2 0 30 -251 258
-284 258 -7 0 -19 7 -26 15 -7 9 -19 14 -27 11 -8 -3 -30 1 -50 9 -19 8 -36
15 -37 14 0 0 -57 -28 -125 -61z"/>
<path d="M12480 4302 c-39 -6 -247 -181 -361 -302 -57 -62 -120 -142 -140
-178 -32 -57 -38 -62 -44 -42 -4 12 -4 82 0 154 4 73 4 147 0 164 -7 34 -97
113 -170 149 -37 19 -200 51 -210 42 -2 -3 11 -29 30 -58 29 -47 34 -66 39
-145 10 -132 -8 -298 -54 -498 -22 -97 -40 -192 -40 -211 0 -20 -5 -39 -11
-43 -7 -4 -9 -22 -6 -48 4 -30 -1 -65 -18 -117 -13 -41 -34 -127 -46 -191
l-23 -116 30 -36 c24 -30 34 -35 61 -32 24 4 32 0 36 -14 3 -11 17 -22 33 -25
16 -3 37 -10 46 -15 21 -12 19 -15 53 90 15 47 35 99 45 117 28 48 200 457
200 474 0 30 87 228 147 334 35 61 102 161 151 222 73 94 100 121 161 158 40
25 79 45 87 45 7 0 20 -13 29 -29 13 -27 13 -37 0 -96 -9 -37 -26 -83 -39
-103 -31 -50 -120 -353 -142 -483 -17 -105 -17 -106 6 -225 20 -104 29 -129
72 -201 44 -74 53 -83 85 -89 20 -4 52 -17 71 -30 40 -28 42 -28 94 -12 25 7
44 21 51 35 5 13 16 23 24 23 21 0 133 79 133 93 0 7 18 31 41 52 57 56 139
198 139 241 0 19 -3 34 -6 34 -4 0 -24 -20 -46 -44 -21 -25 -61 -61 -88 -81
-28 -20 -50 -43 -50 -50 0 -8 -9 -17 -20 -20 -11 -4 -54 -33 -95 -66 -41 -32
-83 -59 -94 -59 -29 0 -54 29 -46 54 4 12 6 37 5 57 -2 65 20 253 30 263 5 5
10 16 10 23 0 7 8 21 18 31 12 12 21 41 25 82 4 35 14 71 22 80 8 9 15 29 15
44 0 14 16 58 35 96 19 38 35 80 35 94 0 13 7 29 16 37 16 13 16 31 -3 145
-11 65 -64 140 -124 176 -47 28 -158 56 -199 50z"/>
</g>
</svg>
