<?xml version="1.0" encoding="utf-8"?>
<!-- Generator: Adobe Illustrator 26.5.0, SVG Export Plug-In . SVG Version: 6.00 Build 0)  -->
<svg version="1.1" id="Layer_1" xmlns="http://www.w3.org/2000/svg" xmlns:xlink="http://www.w3.org/1999/xlink" x="0px" y="0px"
	 viewBox="0 0 1324.6 923" style="enable-background:new 0 0 1324.6 923;" xml:space="preserve">
<g transform="translate(0.000000,923.000000) scale(0.100000,-0.100000)">
	<path d="M4908.5,6744c-68-34-76-147-24-316c39-123,48-96-91-271c-169-213-188-253-144-303c23-27,30-29,112-33c104-4,177,10,258,50
		c33,16,60,28,61,27c9-13,25-79,31-127c5-47,2-67-14-105c-12-25-23-46-26-46c-2,0-18,14-35,31c-26,25-37,30-59,24
		c-87-21-157-99-134-150c23-50,90-58,148-17c21,15,60,40,86,55c91,53,119,163,82,329l-16,73l36,53c60,90,61,168,1,221
		c-37,32-89,47-129,37c-21-5-26,0-44,44l-21,50l31,68c35,77,47,178,29,234C5023.5,6741,4964.5,6772,4908.5,6744z M4976.5,6710
		c35-19,52-68,47-135c-6-67-43-164-57-149c-16,16-61,174-61,212s22,82,41,82C4952.5,6720,4965.5,6715,4976.5,6710z M4949.5,6258
		c12-29,11-37-5-70c-22-43-25-88-7-106c21-21,38-13,38,18c0,49,13,34,46-51l31-80l-38-33c-64-55-210-89-302-72c-75,14-56,69,82,244
		c49,62,100,128,113,147c12,19,24,35,25,35C4934.5,6290,4941.5,6275,4949.5,6258z M5138.5,6178c18-24,19-32,9-66c-7-22-18-45-26-51
		c-12-10-18-2-35,43c-11,30-23,67-27,81c-6,25-5,26,26,23C5107.5,6206,5125.5,6196,5138.5,6178z"/>
	<path d="M2285.5,6739c-89-6-154-17-225-39c-55-16-122-35-150-41c-90-21-378-145-465-200c-105-66-286-204-359-273
		c-102-98-321-401-401-556c-27-54-50-104-50-111c0-6-11-36-25-65c-14-30-33-84-41-121c-9-38-29-104-44-148c-37-106-58-244-65-440
		c-7-161-2-222,41-535c17-128,91-370,130-428c13-19,24-44,24-54c0-11,13-60,30-109c63-189,147-319,314-484c235-233,518-383,901-479
		c190-47,407-75,430-56c9,8,35,10,72,7c112-11,199-6,337,19c262,47,459,110,656,209c161,82,260,152,353,251c78,83,192,257,181,276
		c-4,6,0,16,9,23c10,7,22,50,34,117c19,105,19,106-2,159c-11,30-28,69-38,86c-40,75-208,163-283,148l-37-6l51-52
		c48-49,80-106,95-169c11-42-30-233-65-302c-49-99-108-178-175-234l-63-53l-79,19c-143,37-273,115-387,233c-86,90-125,146-174,252
		c-54,116-72,192-79,347c-7,135-7,135-15,66c-12-96-1-247,23-331c30-102,103-240,172-323c106-129,279-245,425-288c30-8,54-19,54-24
		c0-8-72-58-135-94c-16-9-100-43-185-76c-134-50-157-56-171-44c-8,7-58,25-110,38c-314,79-582,272-694,500c-154,310-62,629,273,947
		c113,107,94,110-32,3c-119-102-201-205-270-342c-111-222-116-473-13-678c96-190,254-332,501-450c111-52,111-53,81-64
		c-36-14-196-6-325,16c-194,33-573,187-618,252c-12,17-38,64-58,106c-143,301-96,710,119,1031c63,94,169,215,239,272
		c34,28,74,61,88,73l25,22l-30-17c-165-97-369-333-464-536c-71-151-93-244-98-415c-6-177,8-268,63-405c19-48,34-89,34-93
		c0-11-175,111-278,194c-70,55-113,100-149,152c-101,146-191,360-229,542c-14,71-14,83,1,159c64,319,265,639,520,830
		c91,68,249,147,345,172c88,23,222,29,295,13l60-13l-3-60c-3-83,12-141,75-285c53-121,58-127,129-190c178-155,350-209,579-180
		c273,33,618,194,770,358c36,38,65,74,65,79s28,35,61,68c34,33,70,80,82,105c11,25,27,56,37,70c42,62,111,236,120,304
		c5,39,19,96,31,126c31,80,29,206-5,323c-63,215-220,447-409,606c-178,150-349,235-505,251c-48,5-123,15-167,23
		C2940.5,6742,2460.5,6752,2285.5,6739z M3030.5,6500c61-6,128-17,150-24c315-114,333-121,408-173c50-34,114-92,176-161
		c126-139,169-228,201-416c22-121,22-131,7-185c-9-32-14-66-11-78c14-53-123-344-229-485c-54-72-229-226-342-301
		c-79-52-286-132-380-147c-195-30-231-31-317-10c-107,28-126,38-180,102c-39,45-48,65-65,138c-18,81-18,89-3,155c9,39,29,106,45,150
		c23,67,38,90,88,142c33,34,71,64,85,68c13,3,36,14,51,24c14,9,49,32,76,51c28,18,59,33,70,32c11,0,27,6,37,15c11,10,44,17,95,20
		c73,4,83,2,137-26c32-17,60-31,62-31c31,0-104,170-207,261c-35,31-84,68-109,84c-24,15-66,45-93,67c-68,53-178,104-294,135
		c-88,24-117,26-278,27c-198,1-254-7-433-60c-185-56-370-147-519-258c-35-25-63-42-63-37c0,4,43,73,95,152c65,97,120,168,173,219
		c42,41,90,90,106,108c53,60,238,191,365,256c164,84,257,120,361,141c47,9,117,26,157,37c41,12,85,19,105,16c18-3,42-2,53,3
		C2633.5,6521,2869.5,6515,3030.5,6500z M2463.5,5871c127-32,302-119,302-152c0-5-22-9-50-9c-27,0-50-4-50-9c0-4-39-24-86-44
		c-68-29-103-52-170-113c-112-102-184-194-184-235c0-36-28-139-38-139c-4,1-34,7-67,15c-134,33-322,8-480-64
		c-284-129-561-424-696-740l-28-66l-1,115c0,265,72,629,190,953c30,83,37,92,99,144c208,174,480,300,747,347c49,9,100,18,114,20
		C2128.5,5906,2382.5,5891,2463.5,5871z M2859.5,2789c-10-4-26-8-34-8c-12,0-11,3,3,14c11,7,26,11,35,8
		C2876.5,2797,2876.5,2795,2859.5,2789z"/>
	<path d="M6884.5,6415c-95-50-86-74,20-50c72,17,97,34,87,60C6983.5,6447,6937.5,6443,6884.5,6415z"/>
	<path d="M6165.5,6358c-52-28-60-29-147-25c-74,3-96,8-118,26c-15,11-31,21-36,21c-11,0-22-41-64-230c-20-91-46-196-58-235l-22-70
		l-49-7c-26-4-59-2-73,3c-20,7-34,4-66-13c-72-41-76-83-8-101c26-6,50-1,117,24c135,51,157,88,221,373c20,88,37,162,38,164
		c2,2,26-4,54-14c52-17,151-16,195,2c17,7,18,4,12-32c-4-21-24-93-43-159c-20-66-48-167-63-224c-15-59-34-109-43-116
		c-10-7-40-11-73-9c-63,4-105-13-129-50c-19-29-12-50,22-65c22-10,34-8,87,18c61,30,86,44,159,89c33,20,38,27,32,50
		c-4,19,16,91,64,232c91,272,109,343,92,364C6248.5,6395,6230.5,6393,6165.5,6358z"/>
	<path d="M6762.5,6317c-6-17,38-373,58-471c8-38,12-73,9-77c-3-5-22-9-42-9c-78,0-137-69-112-130c17-41,43-46,98-18
		c34,16,55,37,77,72c28,47,30,55,29,150c-1,91-39,360-65,459C6804.5,6331,6773.5,6345,6762.5,6317z"/>
	<path d="M9959.5,6305c-9-14-208-78-279-91c-22-4-52-13-67-20c-15-8-36-14-47-14s-29-9-39-21c-16-16-27-19-55-14c-21,4-37,3-41-4
		c-4-6-22-11-41-11c-51,0-78-42-66-103c11-62,97-206,129-218c14-5,27-8,29-6s-5,42-16,88s-16,87-12,92c18,18,255,157,268,157
		c8,0,27,8,41,19c15,10,64,34,110,54c94,41,92,43,62-72c-11-42-40-162-65-268s-65-254-89-330c-50-158-70-245-61-272c3-11-1-24-10-31
		c-11-9-14-22-10-37c3-13,1-23-3-23c-10,0-78-259-87-332c-3-26-10-50-16-53c-5-4-9-21-9-38c0-18-7-41-15-51c-10-13-11-23-5-31
		c7-8,1-25-20-53c-17-24-27-48-24-57c4-8,1-28-6-44c-9-22-9-34,0-51c10-18,8-28-13-59c-14-20-30-64-37-97c-7-32-17-63-22-68
		c-4-6-8-24-8-40c-1-17-7-42-15-56s-14-49-15-79c0-44-4-58-25-77c-19-17-25-33-25-65c0-25-8-55-22-77c-19-32-20-36-5-47s15-14-1-36
		c-30-43-92-192-92-223c0-56-41-180-71-214c-16-18-29-43-29-55s-11-57-25-100s-25-92-25-110s-5-38-11-44c-16-16-3-43,20-43
		c11,0,27-8,37-17c9-10,35-26,57-35c40-18,40-18,72,6c28,22,48,65,145,308c113,282,201,474,264,572c18,28,59,94,91,146
		c108,176,309,421,493,604c82,81,112,92,112,44c0-42-37-160-60-191c-22-29-23-35-30-204c0-7-14-20-31-28c-25-13-28-19-19-30
		c15-18-14-149-37-177c-8-9-13-20-10-25c7-11-11-121-24-156c-7-17-8-32-2-40c6-7,7-55,3-117c-4-60-3-107,2-111c5-3,6-12,3-21
		c-3-8,6-34,19-59c14-24,26-56,26-71c0-16,5-28,10-28c6,0,22-11,36-25c37-37,118-75,159-75c63,0,146,42,202,101
		c99,106,115,128,108,147c-5,15-10,13-33-15c-48-57-213-136-244-117c-26,17-38,77-38,199c0,102,3,125,14,125c22,0,27,16,14,44
		c-10,23-8,29,11,47c18,17,20,23,10,30c-22,13-10,70,22,110c25,32,28,41,19,64c-13,35-13,35,9,35c20,0,20,2,22,84c0,10,11,34,25,52
		c21,27,24,36,14,54c-9,17-9,25,2,38c25,30,40,76,43,130c2,30,10,61,19,71c8,9,16,25,16,36c1,11,4,59,6,106c5,84,4,88-27,139
		c-24,39-43,57-76,71c-49,21-126,25-170,8c-31-12-241-212-287-274c-16-22-47-60-68-84s-38-49-39-55c0-6-21-24-46-41
		c-31-21-59-53-91-105c-24-41-51-79-58-83c-8-4-35-38-61-75s-51-70-56-73c-5-4-7-11-3-17c6-9-23-27-31-19c-9,10,12,92,29,109
		c10,10,18,29,18,42s7,29,15,36s15,29,15,50c0,34,9,59,34,100c13,20,17,60,5,60c-17,0-9,19,10,25c13,4,18,12,14,21c-3,9,4,29,16,45
		c13,17,20,36,18,44c-7,16,24,117,41,137c6,8,14,30,16,49c3,19,12,50,20,71c14,33,14,37-2,43c-15,6-15,8,5,23c15,12,33,53,58,134
		c19,65,35,126,35,137c0,10,9,29,19,43c20,25,51,128,51,168c0,12,6,34,14,48c13,26,33,95,40,137c1,11,8,30,15,43s13,46,13,75
		c0,31,7,59,16,69c8,10,12,28,10,43c-3,14-2,28,2,30c5,3,14,29,20,57c7,29,18,60,24,68c7,8,25,73,40,144c24,110,27,134,17,167
		c-11,38-13,39-119,72C10015.5,6315,9972.5,6323,9959.5,6305z"/>
	<path d="M7250.5,5611c-60-31-166-87-235-124c-278-147-480-193-671-153c-72,16-134,44-278,130c-52,30-124,65-160,78
		c-141,48-345,19-573-82c-119-52-283-157-340-217c-42-44-148-200-148-218c0-22,24-32,63-27c31,3,43,12,67,47c75,108,190,182,437,279
		c172,68,222,79,332,74c94-4,99-7,315-132c150-86,299-117,470-97c250,29,577,191,768,380c81,79,107,122,76,121
		C7366.5,5669,7311.5,5643,7250.5,5611z"/>
	<path d="M8290.5,4956c-265-68-505-279-647-568c-22-44-38-89-35-99s-1-26-8-36s-20-59-30-108c-9-49-19-93-22-98c-9-14-11-257-2-262
		c4-3,5-14,2-25s0-27,7-35c7-9,10-28,6-52c-5-28,2-69,28-157c99-335,374-598,651-621c117-10,249,9,305,44c8,6,28,12,43,16
		c15,3,35,14,45,25c9,11,24,20,33,20c10,0,44,26,76,58c67,68,116,169,111,230l-3,37l-27-46c-14-25-60-77-102-117
		c-107-101-229-159-366-174c-96-11-101-10-176,17c-68,25-87,38-173,121c-75,73-100,103-113,141c-9,26-28,80-43,118
		c-43,112-77,298-71,379c3,38,10,74,16,80c5,5,10,20,10,31c0,12,16,80,35,151c46,168,124,339,192,423c29,36,53,76,53,88
		c0,13,8,24,20,28c11,3,25,15,30,26c6,10,16,19,22,19c7,0,41,31,77,68c37,38,87,81,113,96c66,38,205,86,251,86c45,0,121-37,160-78
		l28-29l-31-84c-25-69-40-94-88-142c-67-69-93-84-187-108c-78-21-77-21-190,46l-49,29l29-51c17-28,54-70,84-93c46-37,63-44,127-53
		c99-14,196,7,299,65c90,50,102,60,142,124c47,73,58,128,40,198c-27,101-117,185-252,235c-33,12-78,30-100,40
		C8549.5,4986,8404.5,4985,8290.5,4956z"/>
	<path d="M4807.5,4655c-60-30-119-66-130-80s-24-25-28-25c-5,0-45-42-90-93c-84-95-214-317-214-363c0-12-5-24-10-26
		c-17-5-58-177-64-268c-10-128,19-283,70-380c52-100,139-174,256-218c83-32,83-32,193-23c145,13,217,43,359,150
		c193,144,304,302,341,481c15,73,15,94,5,160c-12,70-16,79-64,128c-59,61-112,91-210,117c-60,16-80,17-159,7c-78-10-98-16-145-49
		c-133-91-205-202-217-336c-9-92,10-140,79-206c41-41,51-45,104-49c62-4,105,10,150,51c27,25,30,53,5,42c-67-28-153-32-187-10
		c-19,13-25,28-30,78c-9,78,5,118,73,216c28,41,51,80,51,87c0,22,120,74,185,80c71,7,110-6,173-61c42-36,42-37,42-103
		c0-37,4-73,9-81c11-17-80-204-155-324c-97-152-241-263-376-291c-71-14-81-14-143,3c-207,58-255,319-122,661c53,138,95,207,186,312
		c54,61,94,96,136,119c33,18,76,42,96,55c55,34,149,40,223,15c70-25,85-26,92-7c9,24-35,73-141,160c-102,83-150,114-161,104
		c-3-4-20,0-38,7C4919.5,4709,4913.5,4707,4807.5,4655z"/>
	<path d="M6773.5,4510c-79-15-394-317-454-433c-28-55-32-59-39-38c-4,13-4,76,0,141s4,131,1,147c-7,29-91,105-151,136
		c-33,16-182,43-191,34c-3-3,7-25,24-49c24-35,30-57,36-123c10-113-8-274-49-455c-19-85-35-172-35-192s-5-40-11-44c-7-4-9-20-6-39
		c3-20-3-59-14-97c-23-73-59-240-59-272c1-11,11-34,24-50c19-23,30-28,51-24s29,1,32-13c3-11,17-22,32-25c14-3,34-9,43-15
		c15-8,20,1,39,64c12,39,34,97,50,127c15,30,53,116,84,190c32,74,66,155,76,179c11,24,19,49,19,55s18,56,39,111
		c51,129,128,262,227,390c62,81,93,112,145,144c36,22,74,41,83,41c44,0,39-122-9-205c-29-49-107-309-130-431c-16-89-16-92,6-202
		c18-91,30-126,66-187c40-69,46-75,83-81c22-4,40-11,40-16s14-15,31-22c40-17,95-2,116,31c9,13,20,23,27,23c19,0,116,70,116,83
		c0,7,18,31,41,52c67,66,144,217,121,239c-3,4-27-15-53-41c-56-58-138-133-145-133c-3,0-36-25-74-55c-105-83-130-76-125,35
		c11,214,21,265,58,302c9,10,17,34,18,56c1,54,5,72,23,91c9,10,16,30,16,45c0,14,14,53,30,86c17,33,30,68,30,78s5,23,11,29
		c8,8,9,37,4,91c-6,70-11,84-43,127c-21,27-48,57-63,67C6932.5,4486,6808.5,4518,6773.5,4510z"/>
</g>
</svg>
