<?xml version="1.0" standalone="no"?>
<!DOCTYPE svg PUBLIC "-//W3C//DTD SVG 20010904//EN"
 "http://www.w3.org/TR/2001/REC-SVG-20010904/DTD/svg10.dtd">
<svg version="1.0" xmlns="http://www.w3.org/2000/svg"
 width="900.000000pt" height="206.000000pt" viewBox="0 0 900.000000 206.000000"
 preserveAspectRatio="xMidYMid meet">

<g transform="translate(0.000000,206.000000) scale(0.100000,-0.100000)"
fill="#000000" stroke="none">
<path d="M1000 1690 c-293 -34 -513 -231 -592 -530 -41 -153 -7 -393 79 -569
52 -105 170 -197 315 -245 103 -35 175 -43 287 -35 217 18 393 108 454 232 41
85 34 147 -23 180 -29 17 -60 22 -60 10 0 -3 8 -15 17 -26 37 -40 11 -147 -49
-208 -35 -34 -55 -36 -108 -9 -88 45 -139 111 -167 215 l-13 50 5 -44 c13
-104 85 -200 182 -243 l45 -20 -28 -17 c-16 -9 -51 -25 -77 -35 -41 -15 -55
-16 -94 -7 -139 35 -241 129 -259 238 -8 50 15 128 53 182 l25 36 -31 -34
c-16 -19 -37 -55 -46 -79 -47 -139 13 -264 165 -343 l45 -24 -30 -3 c-83 -10
-267 55 -302 107 -54 79 -51 211 7 326 16 33 23 51 14 40 -62 -77 -89 -216
-60 -310 8 -27 14 -51 12 -52 -2 -2 -30 17 -64 41 -68 50 -104 104 -134 199
-24 78 -18 124 27 215 73 146 227 249 340 228 32 -6 35 -10 36 -44 1 -90 89
-183 185 -198 109 -16 271 50 352 144 27 31 60 77 72 102 32 61 50 162 38 212
-23 103 -118 223 -218 273 -75 38 -271 60 -400 45z m360 -108 c56 -20 87 -38
121 -73 70 -69 83 -100 83 -194 0 -71 -4 -87 -34 -143 -62 -116 -185 -205
-308 -222 -130 -17 -194 49 -156 164 20 60 27 71 63 89 14 8 40 22 56 31 35
18 78 21 106 5 18 -9 19 -8 10 8 -19 37 -98 100 -166 134 -64 31 -77 34 -165
34 -110 0 -193 -24 -278 -80 -29 -18 -52 -31 -52 -27 0 4 14 27 31 52 147 218
439 312 689 222z m-258 -196 c52 -22 53 -31 6 -52 -49 -22 -128 -98 -128 -124
0 -41 -8 -45 -75 -42 -56 3 -75 -1 -129 -26 -77 -36 -169 -125 -209 -203 l-28
-54 5 85 c6 92 44 245 72 288 10 15 27 34 38 44 34 28 143 78 204 93 69 18
192 13 244 -9z"/>
<path d="M1863 1675 c-5 -15 -2 -42 13 -105 4 -20 -4 -39 -40 -85 -25 -32 -46
-66 -46 -76 0 -31 57 -39 115 -15 l34 15 7 -34 c8 -43 -1 -57 -32 -49 -28 7
-54 -10 -54 -37 0 -30 43 -23 80 11 31 29 32 34 27 81 -5 36 -2 60 9 80 19 37
5 66 -33 71 -24 3 -28 7 -26 33 1 17 5 45 9 63 7 37 -8 62 -38 62 -10 0 -21
-7 -25 -15z m53 -19 c6 -27 -3 -66 -16 -66 -9 0 -20 35 -20 68 0 30 28 29 36
-2z m-23 -156 c-4 -22 -2 -30 7 -28 6 2 16 -7 21 -19 7 -19 4 -26 -15 -38 -13
-9 -40 -19 -60 -22 -55 -9 -57 16 -7 82 47 62 63 69 54 25z m64 -6 c3 -8 1
-20 -6 -27 -8 -8 -11 -8 -11 0 0 6 -3 18 -6 27 -3 9 -1 16 5 16 7 0 14 -7 18
-16z"/>
<path d="M2540 1580 c-8 -5 -12 -11 -9 -14 7 -8 49 5 49 15 0 12 -21 11 -40
-1z"/>
<path d="M2195 1557 c-3 -7 -12 -46 -22 -87 -17 -73 -19 -75 -50 -78 -38 -4
-64 -28 -39 -38 25 -10 75 16 90 45 8 14 19 51 26 82 l13 57 41 -6 c22 -2 42
-6 44 -7 2 -2 -8 -40 -21 -86 -22 -79 -26 -84 -53 -87 -36 -4 -52 -18 -37 -33
8 -8 21 -5 50 11 35 20 40 28 71 127 18 58 31 107 28 110 -2 3 -21 -1 -40 -8
-28 -10 -43 -11 -67 -2 -23 9 -31 9 -34 0z"/>
<path d="M2501 1538 c0 -7 6 -48 13 -91 l13 -78 -26 -12 c-32 -15 -41 -47 -13
-47 29 0 52 32 52 75 0 56 -21 165 -31 165 -5 0 -9 -6 -8 -12z"/>
<path d="M3500 1520 c-47 -16 -92 -29 -101 -30 -33 0 -39 -23 -19 -68 23 -50
39 -54 36 -9 -1 30 3 34 69 69 39 21 75 38 81 38 7 0 3 -32 -12 -92 -31 -128
-110 -430 -117 -448 -3 -8 -8 -28 -11 -45 -11 -66 -89 -322 -119 -395 -8 -19
-18 -49 -22 -67 -6 -28 -3 -34 23 -47 38 -20 39 -19 96 125 26 64 73 157 105
206 63 96 194 243 204 227 3 -5 -3 -33 -13 -61 -10 -28 -16 -54 -13 -56 2 -3
0 -13 -5 -24 -33 -65 -48 -184 -31 -243 23 -76 83 -92 144 -39 40 36 48 61 9
30 -15 -12 -38 -21 -52 -21 l-25 0 7 81 c4 44 11 88 15 97 20 37 53 160 58
213 5 51 3 58 -18 73 -49 34 -71 23 -166 -82 -48 -54 -96 -111 -107 -125 -43
-62 -45 -64 -46 -45 0 9 4 19 9 23 5 3 12 19 16 36 4 16 29 98 56 182 28 84
63 202 79 262 16 61 34 126 40 145 19 66 14 89 -25 106 -44 18 -44 18 -145
-16z"/>
<path d="M2625 1290 c-152 -86 -230 -94 -344 -34 -60 31 -85 39 -125 38 -95
-2 -224 -67 -271 -137 -14 -20 -25 -38 -25 -41 0 -16 32 -2 61 27 42 41 173
97 228 97 27 0 61 -11 105 -35 37 -21 85 -38 113 -42 58 -6 145 16 213 54 81
47 154 114 123 113 -5 0 -39 -18 -78 -40z"/>
<path d="M2974 1081 c-88 -40 -164 -131 -189 -227 -59 -228 57 -444 239 -444
86 0 163 47 181 110 7 23 4 22 -31 -11 -92 -87 -191 -93 -261 -17 -37 40 -66
144 -59 215 15 169 153 353 264 353 44 0 66 -21 58 -57 -13 -56 -94 -105 -137
-83 -30 16 -34 11 -10 -14 43 -46 124 -40 184 13 37 34 43 87 12 122 -50 56
-173 75 -251 40z"/>
<path d="M1839 990 c-49 -26 -100 -85 -135 -156 -25 -50 -29 -71 -29 -139 0
-95 20 -138 81 -172 72 -41 145 -25 230 51 137 122 124 263 -24 274 -57 4 -60
3 -100 -35 -51 -49 -64 -102 -35 -141 22 -30 73 -41 91 -20 9 11 5 13 -23 10
-29 -4 -35 -1 -40 20 -13 52 51 138 102 138 82 0 96 -68 35 -169 -66 -109
-158 -150 -219 -97 -26 22 -28 30 -27 93 2 158 136 312 238 273 45 -17 31 12
-28 59 -44 36 -67 38 -117 11z"/>
<path d="M2420 873 l-80 -80 2 49 c2 45 -1 53 -27 74 -17 13 -43 24 -58 24
-24 0 -26 -2 -17 -19 14 -28 12 -105 -5 -178 -8 -33 -16 -76 -18 -95 -3 -18
-10 -55 -17 -82 -13 -47 -12 -50 10 -68 33 -26 45 -23 62 20 110 265 152 343
205 377 44 29 47 5 13 -96 -27 -76 -31 -104 -27 -150 6 -68 28 -105 67 -114
43 -9 99 31 136 98 21 39 14 41 -21 9 -40 -37 -77 -62 -91 -62 -18 0 -6 85 27
180 16 47 29 96 29 107 0 31 -40 72 -77 79 -31 6 -38 1 -113 -73z"/>
</g>
</svg>
